<?xml version="1.0" encoding="UTF-8"?>
<svg width="24px" height="24px" viewBox="0 0 24 24" version="1.1" xmlns="http://www.w3.org/2000/svg" xmlns:xlink="http://www.w3.org/1999/xlink">
    <title>编组 15</title>
    <defs>
        <radialGradient cx="95.2389629%" cy="111.964973%" fx="95.2389629%" fy="111.964973%" r="164.050312%" gradientTransform="translate(0.952390,1.119650),scale(0.738806,1.000000),rotate(-136.960384),translate(-0.952390,-1.119650)" id="radialGradient-1">
            <stop stop-color="#2C81EE" offset="0%"></stop>
            <stop stop-color="#3829DC" offset="55.7118663%"></stop>
            <stop stop-color="#7100DA" offset="100%"></stop>
        </radialGradient>
        <path d="M23.623795,8.55251022 C23.623795,9.32370056 22.9986217,9.94887386 22.2274314,9.94887386 L22.2274314,9.94909091 L18.3874314,9.94909091 C18.0193633,9.94909091 17.7178174,10.2339064 17.6911646,10.5951666 L17.6892496,10.6472727 L17.6892496,13.7890909 C17.6892496,15.7170668 16.1263163,17.28 14.1983405,17.28 C12.3030422,17.28 10.760517,15.7695986 10.7087725,13.8868031 L10.7074314,13.7890909 L10.7074314,3.49090909 C10.7074314,3.10531392 10.3948447,2.79272727 10.0092496,2.79272727 C9.64118146,2.79272727 9.33963557,3.07754279 9.31298278,3.43880296 L9.31106776,3.49090909 L9.31106776,6.65179377 L9.30970412,6.651 L9.30607523,6.82103904 C9.20996056,8.62920416 7.73790647,10.0722755 5.9178709,10.1222952 L5.82015866,10.1236364 L4.07470412,10.1236364 L4.07470412,7.33090909 L5.82015866,7.33090909 C6.18822678,7.33090909 6.48977267,7.04609357 6.51642546,6.6848334 L6.51834048,6.63272727 L6.51834048,3.49090909 C6.51834048,1.56293324 8.08127372,1.32160949e-12 10.0092496,1.32160949e-12 C11.9045479,1.32160949e-12 13.447073,1.51040144 13.4988175,3.39319685 L13.5001587,3.49090909 L13.5001587,13.7890909 C13.5001587,14.1746861 13.8127453,14.4872727 14.1983405,14.4872727 C14.5664086,14.4872727 14.8679545,14.2024572 14.8946073,13.841197 L14.8965223,13.7890909 L14.8965223,10.3027755 L14.9133639,10.3021823 C15.0835306,8.56805227 16.5226054,7.20627003 18.2897192,7.15770477 L18.3874314,7.15636364 L22.2274314,7.15636364 C22.9986217,7.15614658 23.623795,7.78131988 23.623795,8.55251022 Z M1.63106776,7.33090909 C2.4022581,7.33090909 3.02743139,7.95608239 3.02743139,8.72727273 C3.02743139,9.49846307 2.4022581,10.1236364 1.63106776,10.1236364 C0.859877414,10.1236364 0.234704119,9.49846307 0.234704119,8.72727273 C0.234704119,7.95608239 0.859877414,7.33090909 1.63106776,7.33090909 Z" id="path-2"></path>
        <filter x="-158.2%" y="-115.7%" width="416.4%" height="528.2%" filterUnits="objectBoundingBox" id="filter-3">
            <feOffset dx="0" dy="17" in="SourceAlpha" result="shadowOffsetOuter1"></feOffset>
            <feGaussianBlur stdDeviation="9.5" in="shadowOffsetOuter1" result="shadowBlurOuter1"></feGaussianBlur>
            <feColorMatrix values="0 0 0 0 0.198632893   0 0 0 0 0.192156863   0 0 0 0 0.901960784  0 0 0 0.2 0" type="matrix" in="shadowBlurOuter1"></feColorMatrix>
        </filter>
    </defs>
    <g id="修改" stroke="none" stroke-width="1" fill="none" fill-rule="evenodd">
        <g id="形状结合-2" transform="translate(0.000000, 3.000000)" fill-rule="nonzero">
            <g id="形状结合" transform="translate(11.929250, 8.640000) scale(1, -1) translate(-11.929250, -8.640000) ">
                <use fill="black" fill-opacity="1" filter="url(#filter-3)" xlink:href="#path-2"></use>
                <use fill="url(#radialGradient-1)" xlink:href="#path-2"></use>
            </g>
        </g>
    </g>
</svg>